<svg width="80" height="80" viewBox="0 0 80 80" fill="none" xmlns="http://www.w3.org/2000/svg">
<g clip-path="url(#clip0_218_1561)">
<path d="M41.2152 28.1113C44.5516 28.8669 48.2273 33.1153 48.6977 36.4704C49.1852 39.9456 48.1891 42.8568 45.7918 45.339C42.2907 48.9643 36.2948 49.7509 31.9607 46.9634C28.9966 45.057 27.2095 42.4456 26.893 39.1311C26.6198 36.2711 27.3725 33.5612 29.42 31.2173C30.9916 29.4181 32.9482 28.308 35.1689 27.8247C37.0991 27.4047 39.1861 27.1865 41.2152 28.1113ZM38.7477 30.5902C38.2486 30.5036 37.555 30.1852 37.2984 30.3867C36.9518 30.6592 36.908 31.3247 36.7995 31.8346C36.7407 32.1104 36.8414 32.4142 36.8291 32.7038C36.762 34.3045 36.6495 35.9043 36.6273 37.5054C36.6209 37.9753 36.6995 38.6764 37.0123 38.8805C38.3777 39.772 39.8116 40.5845 41.2989 41.2656C41.6075 41.4069 42.3311 40.9544 42.7195 40.6194C43.3266 40.0959 42.7493 39.7052 42.3591 39.3968C41.962 39.0832 41.4873 38.8636 41.0625 38.5806C40.3975 38.1373 39.7461 37.6753 39.103 37.0133C39.1034 35.8915 39.1293 34.7689 39.0964 33.648C39.067 32.6522 38.972 31.6584 38.7477 30.5902Z" fill="white"/>
<path d="M19.3492 51.8478C19.5027 52.8008 19.6306 53.6542 19.7931 54.5012C20.2461 56.8634 20.4692 59.3008 21.2416 61.5621C22.0693 63.9852 23.328 66.2889 24.5809 68.55C25.1866 69.6432 26.2102 70.5199 26.9898 71.4302C27.8539 70.8416 28.548 70.2078 29.3695 69.8384C32.3214 68.5107 36.4932 70.4351 37.0918 73.6891C37.505 75.9348 36.5791 77.588 34.9391 78.8595C33.2475 80.1707 31.1727 80.297 29.2614 79.3476C27.3405 78.3933 26.1005 76.8192 26.1645 74.588C26.1891 73.7291 25.7182 73.3181 25.1527 72.7219C23.6886 71.1777 22.2687 69.5271 21.2047 67.714C20.0861 65.8078 19.266 63.7056 18.5674 61.6107C17.9578 59.7825 17.5332 57.8623 17.3214 55.9522C16.9586 52.6799 16.557 49.3759 16.6567 46.099C16.8227 40.6436 17.4491 35.2239 18.8276 29.886C20.1376 24.8131 21.9733 19.9578 24.3205 15.2648C24.7777 14.3508 25.5075 13.9416 26.2048 14.2691C27.2259 14.7487 27.3545 15.3841 26.6532 16.2663C26.3759 16.6149 26.3348 17.1291 26.1123 17.5296C23.6448 21.9729 22.2094 26.7834 21.0296 31.6408C20.2683 34.7751 19.9562 38.0208 19.5891 41.2322C19.318 43.6036 19.2427 45.9992 19.1606 48.3867C19.1222 49.5032 19.274 50.6256 19.3492 51.8478ZM30.8605 77.4028C31.8141 77.9674 32.5739 77.4586 33.3152 76.9634C34.4 76.239 34.8705 74.7603 34.4007 73.6577C33.81 72.2722 32.5873 71.5109 31.2768 71.7131C29.8889 71.9271 28.9264 72.9542 28.7384 74.4212C28.5625 75.7962 29.2766 76.8507 30.8605 77.4028Z" fill="white"/>
<path d="M23.8036 60.492C23.387 60.0417 23.0689 59.5947 22.7509 59.1476C23.2668 58.865 23.7616 58.3848 24.302 58.3309C28.4402 57.9193 32.5591 57.4569 36.6036 56.4406C41.75 55.1476 46.7402 53.4857 51.5236 51.2178C55.7373 49.2199 59.6632 46.8235 63.3455 44.009C65.9791 41.9958 68.3091 39.7063 70.1907 37.0582C71.4861 35.2351 72.3739 33.141 73.495 31.074C71.397 30.4305 70.0598 29.3835 69.2934 27.6725C68.2441 25.3294 69.0598 22.8821 71.1764 21.4835C73.3166 20.0691 75.7125 20.0536 77.8884 21.8466C79.8961 23.501 80.4279 26.0118 79.2005 28.2039C78.5777 29.316 77.6618 30.1703 76.3973 30.647C76.1164 30.7529 75.7854 31.065 75.7241 31.3345C75.2018 33.632 74.168 35.6894 72.8589 37.6606C71.068 40.3573 68.758 42.6076 66.365 44.7628C64.8552 46.1226 63.1484 47.3118 61.4034 48.3857C58.8534 49.9549 56.2384 51.4406 53.5609 52.7958C51.0816 54.0507 48.5459 55.2503 45.9243 56.1828C41.697 57.6865 37.3941 59.0305 32.9014 59.6002C29.9125 59.9789 26.9027 60.2024 23.8036 60.492ZM71.4714 25.149C71.3105 26.807 72.1775 28.158 73.6295 28.5116C75.1277 28.8764 76.4377 28.2351 77.0361 26.8435C77.6418 25.4351 77.0145 23.7083 75.6952 23.1518C73.9409 22.4116 72.3845 23.1156 71.4714 25.149Z" fill="white"/>
<path d="M51.1555 25.782C45.9902 21.4734 40.4786 17.7971 34.3539 15.0221C30.3123 13.191 26.0986 11.8088 21.6617 11.3163C19.2189 11.0451 16.7004 11.0413 14.3105 11.8664C14.1059 11.937 13.8976 12.4888 13.9696 12.7434C15.0005 16.386 11.4333 19.409 8.25277 19.1662C6.3932 19.0242 4.80493 18.1167 3.93641 16.5935C2.83409 14.6604 2.76098 12.5524 4.1865 10.629C5.67366 8.62231 9.21668 8.07275 11.4235 9.41354C11.8227 9.65607 12.4618 9.80614 12.8907 9.6808C15.492 8.9206 18.1041 8.83919 20.8145 8.97168C24.622 9.15779 28.2207 10.1173 31.7111 11.3811C34.5409 12.4057 37.1968 13.891 39.8955 15.2368C41.525 16.0494 43.1525 16.8947 44.6648 17.8904C46.4075 19.0377 48.0777 20.3043 49.6798 21.6316C52.0718 23.6134 54.4318 25.6387 56.6995 27.7519C58.1548 29.1082 59.4902 30.6009 60.7507 32.1317C62.2193 33.9152 63.5095 35.8352 64.9548 37.6376C65.5575 38.389 65.5916 39.0532 64.8745 39.5912C64.0284 40.2262 63.35 39.5827 62.8891 38.9824C61.9434 37.7508 61.2061 36.3616 60.203 35.18C57.6864 32.2154 55.207 29.2068 52.0832 26.7842C51.7452 26.522 51.517 26.1277 51.1555 25.782ZM7.09268 11.3483C6.66564 11.9085 6.14818 12.4253 5.83289 13.0391C5.37057 13.9392 5.88352 15.4254 6.77166 16.1276C7.7478 16.8994 9.10025 16.999 10.0627 16.37C11.4931 15.4351 11.9866 13.9802 11.3118 12.6873C10.5187 11.1679 9.02393 10.6464 7.09268 11.3483Z" fill="white"/>
<path d="M0.276243 50.0513C-0.165542 47.3959 -0.144313 44.8728 0.835618 42.3924C1.8732 39.766 3.33252 37.3904 5.27955 35.3249C6.85339 33.6552 8.54932 32.0915 10.2231 30.5124C11.2885 29.5073 12.6367 29.6955 12.8404 30.8759C12.8996 31.2194 12.5979 31.7548 12.29 32.0027C9.50098 34.2482 6.90718 36.668 5.04959 39.7133C3.66041 41.9906 2.50802 44.37 2.506 47.1111C2.50361 50.3135 4.01225 52.715 6.63441 54.5588C9.00805 56.2275 11.7341 57.0388 14.5481 57.6231C15.3713 57.7939 16.0891 58.0746 16.1184 58.9511C16.1418 59.6533 14.873 60.1508 13.8827 59.8559C11.8078 59.2385 9.63636 58.7988 7.70257 57.8913C4.24598 56.2695 1.53072 53.83 0.276243 50.0513Z" fill="white"/>
<path d="M54.7923 14.1194C53.8673 11.1785 52.5882 8.50336 50.67 6.14079C48.2489 3.15903 43.8893 1.5211 39.8193 2.97734C36.7468 4.07664 34.3545 5.94545 32.2898 8.31136C31.723 8.96064 31.0216 9.13428 30.3293 8.57578C29.6427 8.02202 29.6425 7.3531 30.2784 6.70402C32.8795 4.04938 35.6945 1.58943 39.3789 0.548775C42.8684 -0.436866 46.3061 -0.171858 49.4595 1.97546C52.2034 3.84371 54.0236 6.32393 55.467 9.1884C56.9886 12.2077 57.8752 15.4 58.6091 18.6508C58.8023 19.5059 58.3655 20.4627 57.6911 20.4778C56.8341 20.4971 56.2761 20.1416 56.0843 19.1799C55.7502 17.5054 55.2377 15.8641 54.7923 14.1194Z" fill="white"/>
<path d="M67.9766 58.5125C69.3023 55.0793 68.5293 51.7938 67.6777 48.5119C67.633 48.3398 67.5705 48.1646 67.4777 48.0127C67.0202 47.2624 67.3516 46.5343 67.9589 46.2596C68.6861 45.9308 69.4682 46.3176 69.785 47.1029C70.147 48.0011 70.4718 48.9255 70.6855 49.8655C71.2945 52.5468 71.4405 55.2833 70.8848 57.9622C70.3575 60.5048 68.7932 62.5481 66.723 64.1912C64.4991 65.9563 61.8927 66.6446 59.0552 66.9035C55.1914 67.2558 51.5027 66.5881 47.8414 65.5541C46.8861 65.2842 45.9486 64.9556 44.9905 64.6971C44.0452 64.442 43.6793 63.7932 43.9155 62.9725C44.1398 62.1934 44.797 62.2182 45.542 62.4506C47.3548 63.0156 49.1768 63.5752 51.0305 63.9897C53.94 64.6404 56.8923 64.9426 59.8705 64.4174C63.5541 63.7677 66.5514 62.2103 67.9766 58.5125Z" fill="white"/>
<path d="M39.0959 37.1175C39.0173 36.7443 38.8905 36.2678 38.8843 35.79C38.8634 34.1465 38.885 32.5023 38.8982 30.761C38.972 31.6586 39.067 32.6524 39.0964 33.6482C39.1293 34.7691 39.1034 35.8918 39.0959 37.1175Z" fill="white"/>
</g>
<defs>
<clipPath id="clip0_218_1561">
<rect width="80" height="80" fill="white"/>
</clipPath>
</defs>
</svg>
