<svg width="600" height="600" viewBox="0 0 600 600" fill="none" xmlns="http://www.w3.org/2000/svg">
<path d="M467.304 76.4878H407.328V96.6598H467.304V76.4878Z" fill="#E6E6E6"/>
<path d="M453.792 96.6479H393.816V116.82H453.792V96.6479Z" fill="#F0F0F0"/>
<path d="M466.344 400.44H406.368V420.612H466.344V400.44Z" fill="#E6E6E6"/>
<path d="M452.832 420.612H392.856V440.784H452.832V420.612Z" fill="#F0F0F0"/>
<path d="M276.612 65.616H216.636V85.788H276.612V65.616Z" fill="#F0F0F0"/>
<path d="M560.052 249.756H500.076V269.928H560.052V249.756Z" fill="#F0F0F0"/>
<path d="M109.932 179.076H49.956V199.248H109.932V179.076Z" fill="#F0F0F0"/>
<path d="M268.596 422.496H208.62V442.668H268.596V422.496Z" fill="#F0F0F0"/>
<path d="M532.704 381.336H315.804C313.939 381.336 312.15 380.595 310.832 379.276C309.513 377.958 308.772 376.169 308.772 374.304V58.3799C308.775 56.5159 309.517 54.7291 310.835 53.411C312.153 52.093 313.94 51.3511 315.804 51.3479H532.704C534.568 51.3511 536.355 52.093 537.673 53.411C538.991 54.7291 539.733 56.5159 539.736 58.3799V374.304C539.736 376.169 538.995 377.958 537.676 379.276C536.358 380.595 534.569 381.336 532.704 381.336ZM315.804 51.5999C314.02 51.6031 312.309 52.3134 311.047 53.5752C309.785 54.837 309.075 56.5474 309.072 58.3319V374.304C309.072 375.188 309.246 376.063 309.584 376.88C309.923 377.697 310.419 378.439 311.044 379.064C311.669 379.689 312.411 380.185 313.228 380.523C314.044 380.862 314.92 381.036 315.804 381.036H532.704C533.588 381.036 534.463 380.862 535.28 380.523C536.097 380.185 536.839 379.689 537.464 379.064C538.089 378.439 538.585 377.697 538.924 376.88C539.262 376.063 539.436 375.188 539.436 374.304V58.3799C539.442 57.4918 539.273 56.6112 538.937 55.7889C538.602 54.9666 538.107 54.2188 537.481 53.5886C536.856 52.9584 536.111 52.4582 535.291 52.1169C534.471 51.7756 533.592 51.5999 532.704 51.5999H315.804Z" fill="#E0E0E0"/>
<path d="M282.588 381.336H65.7C64.7755 381.337 63.8598 381.157 63.0053 380.804C62.1507 380.451 61.3741 379.934 60.7199 379.281C60.0656 378.627 59.5466 377.852 59.1924 376.998C58.8383 376.144 58.656 375.228 58.656 374.304V58.3799C58.6592 56.5138 59.4027 54.7252 60.7234 53.4068C62.044 52.0884 63.8339 51.3479 65.7 51.3479H282.588C284.453 51.3479 286.242 52.0888 287.56 53.4075C288.879 54.7263 289.62 56.5149 289.62 58.3799V374.304C289.62 376.169 288.879 377.958 287.56 379.276C286.242 380.595 284.453 381.336 282.588 381.336ZM65.7 51.5999C63.9135 51.5999 62.1999 52.3088 60.9355 53.5709C59.6711 54.8331 58.9592 56.5454 58.956 58.3319V374.304C58.9592 376.09 59.6711 377.803 60.9355 379.065C62.1999 380.327 63.9135 381.036 65.7 381.036H282.588C283.472 381.036 284.347 380.862 285.164 380.523C285.981 380.185 286.723 379.689 287.348 379.064C287.973 378.439 288.469 377.697 288.808 376.88C289.146 376.063 289.32 375.188 289.32 374.304V58.3799C289.326 57.4918 289.157 56.6112 288.821 55.7889C288.486 54.9666 287.991 54.2188 287.365 53.5886C286.74 52.9584 285.995 52.4582 285.175 52.1169C284.355 51.7756 283.476 51.5999 282.588 51.5999H65.7Z" fill="#E0E0E0"/>
<path d="M600 454.62H0V454.92H600V454.62Z" fill="#E0E0E0"/>
<path d="M81.276 471.744H62.004V472.044H81.276V471.744Z" fill="#E0E0E0"/>
<path d="M268.656 468.492H204.42V468.792H268.656V468.492Z" fill="#E0E0E0"/>
<path d="M125.976 482.892H82.476V483.192H125.976V482.892Z" fill="#E0E0E0"/>
<path d="M505.848 468.336H454.02V468.636H505.848V468.336Z" fill="#E0E0E0"/>
<path d="M524.136 468.336H516.54V468.636H524.136V468.336Z" fill="#E0E0E0"/>
<path d="M444.12 475.812H379.452V476.112H444.12V475.812Z" fill="#E0E0E0"/>
<path d="M550.656 538.068C550.656 542.136 438.432 545.436 300 545.436C161.568 545.436 49.344 542.136 49.344 538.068C49.344 534 161.568 530.712 300 530.712C438.432 530.712 550.656 534 550.656 538.068Z" fill="#F5F5F5"/>
<path d="M348.24 506.472C348.24 506.004 346.644 459.612 339.096 452.268C331.764 445.14 323.34 452.004 322.98 452.268L322.224 451.356C322.32 451.272 331.824 443.52 339.924 451.356C347.808 459.024 349.356 504.432 349.416 506.364L348.24 506.472Z" fill="#263238"/>
<path d="M348.888 515.592C348.828 515.04 343.728 459.888 363.864 436.776L364.752 437.556C344.952 460.284 350.004 514.92 350.052 515.472L348.888 515.592Z" fill="#263238"/>
<path d="M348.132 509.76L346.932 509.676C346.932 509.052 350.88 446.988 336.132 433.404L336.924 432.528C352.116 446.496 348.312 507.18 348.132 509.76Z" fill="#263238"/>
<path d="M350.064 509.724H348.864C348.864 508.02 349.356 467.796 360.78 461.256C361.865 460.553 363.102 460.121 364.388 459.996C365.675 459.871 366.972 460.056 368.172 460.536C375.072 463.392 378.504 475.68 378.636 476.208L377.436 476.52C377.436 476.4 374.028 464.256 367.656 461.628C366.623 461.223 365.508 461.07 364.404 461.183C363.299 461.296 362.238 461.671 361.308 462.276C350.532 468.48 350.064 509.304 350.064 509.724Z" fill="#263238"/>
<path d="M345.6 509.748L344.4 509.688C344.4 509.364 346.116 477.9 337.632 466.824C335.568 464.136 333.336 462.852 330.984 463.02C325.416 463.404 320.748 471.552 320.7 471.636L319.68 471.048C319.884 470.688 324.696 462.276 330.9 461.844C333.672 461.64 336.252 463.044 338.568 466.104C347.364 477.6 345.684 508.44 345.6 509.748Z" fill="#263238"/>
<path d="M347.472 514.032C347.244 510.972 341.928 439.14 351.288 426.432L352.236 427.14C343.128 439.452 348.636 513.144 348.636 513.888L347.472 514.032Z" fill="#263238"/>
<path d="M372.42 464.484C372.42 464.484 366.42 466.692 368.472 471.444C374.184 484.824 387.804 486.252 387.804 486.252C387.804 486.252 394.2 476.136 389.004 468.252C381.732 457.452 372.576 460.992 372.42 464.484Z" fill="#268CBE"/>
<path d="M346.32 458.496C346.32 458.496 352.32 458.256 352.632 463.404C352.944 468.552 339.684 482.808 339.684 482.808C339.684 482.808 330.204 479.388 332.232 466.524C334.26 453.66 344.832 455.328 346.32 458.496Z" fill="#268CBE"/>
<path d="M349.2 428.472C348.458 428.359 347.755 428.065 347.153 427.618C346.55 427.17 346.067 426.582 345.744 425.904C342.936 419.16 352.608 411.9 365.556 415.74C365.556 415.74 365.892 427.128 358.932 431.616C351.972 436.104 349.2 428.472 349.2 428.472Z" fill="#268CBE"/>
<path d="M327.036 463.788C327.036 463.788 329.124 460.932 325.968 460.656C322.812 460.38 309.168 466.488 312.768 480.468C312.768 480.468 330.3 474.744 330.9 468.888C331.5 463.032 327.036 463.788 327.036 463.788Z" fill="#268CBE"/>
<path d="M364.404 433.476C364.725 432.626 365.227 431.856 365.876 431.22C366.524 430.583 367.304 430.096 368.16 429.792C371.136 428.712 382.164 429.396 382.32 443.82C382.32 443.82 365.352 446.64 363.252 441.144C361.152 435.648 364.404 433.476 364.404 433.476Z" fill="#268CBE"/>
<path d="M355.2 445.464C355.526 444.91 356.055 444.503 356.675 444.331C357.295 444.159 357.958 444.234 358.524 444.54C359.818 445.32 360.925 446.374 361.769 447.627C362.612 448.88 363.171 450.302 363.407 451.795C363.642 453.287 363.549 454.812 363.132 456.264C362.716 457.716 361.987 459.06 360.996 460.2C360.996 460.2 349.608 453.348 350.544 448.548C351.456 444.12 355.2 445.464 355.2 445.464Z" fill="#268CBE"/>
<path d="M327.348 448.944C327.348 448.944 328.992 446.796 326.592 446.544C324.192 446.292 313.392 449.16 315.9 459.936C315.9 459.936 329.1 458.952 329.616 454.476C330.132 450 327.348 448.944 327.348 448.944Z" fill="#268CBE"/>
<path d="M364.944 538.548H332.808L329.34 505.284H368.412L364.944 538.548Z" fill="#263238"/>
<path d="M373.824 500.724H323.94V509.832H373.824V500.724Z" fill="#263238"/>
<path opacity="0.3" d="M338.508 478.356C338.437 478.355 338.368 478.329 338.313 478.283C338.259 478.237 338.222 478.174 338.208 478.104C337.272 471.384 340.44 463.416 346.116 458.28C346.175 458.226 346.253 458.198 346.333 458.201C346.413 458.204 346.488 458.239 346.542 458.298C346.596 458.357 346.625 458.435 346.621 458.515C346.618 458.595 346.583 458.67 346.524 458.724C340.992 463.728 337.884 471.492 338.808 478.02C338.818 478.098 338.798 478.177 338.751 478.24C338.703 478.302 338.634 478.344 338.556 478.356H338.508Z" fill="black"/>
<path opacity="0.3" d="M360.612 456.144C360.542 456.143 360.475 456.119 360.421 456.076C360.366 456.032 360.328 455.972 360.312 455.904C359.562 452.181 357.73 448.762 355.044 446.076C354.988 446.018 354.957 445.941 354.957 445.86C354.957 445.78 354.988 445.702 355.044 445.644C355.103 445.591 355.18 445.562 355.26 445.562C355.34 445.562 355.417 445.591 355.476 445.644C358.245 448.417 360.135 451.943 360.912 455.784C360.921 455.822 360.922 455.861 360.915 455.899C360.908 455.938 360.894 455.974 360.872 456.007C360.851 456.039 360.823 456.067 360.791 456.089C360.759 456.11 360.722 456.125 360.684 456.132L360.612 456.144Z" fill="black"/>
<path opacity="0.3" d="M385.548 477.6C385.491 477.603 385.433 477.588 385.384 477.558C385.335 477.529 385.296 477.484 385.272 477.432C382.475 471.879 377.912 467.413 372.3 464.736C372.258 464.726 372.218 464.706 372.184 464.678C372.15 464.651 372.122 464.616 372.103 464.577C372.084 464.537 372.073 464.494 372.073 464.45C372.072 464.407 372.081 464.363 372.098 464.323C372.116 464.283 372.143 464.248 372.176 464.219C372.209 464.19 372.248 464.169 372.29 464.157C372.332 464.145 372.376 464.142 372.419 464.149C372.462 464.155 372.504 464.172 372.54 464.196C378.281 466.927 382.95 471.491 385.812 477.168C385.846 477.24 385.852 477.322 385.827 477.398C385.803 477.474 385.75 477.538 385.68 477.576L385.548 477.6Z" fill="black"/>
<path opacity="0.3" d="M379.2 440.328C379.147 440.329 379.095 440.317 379.049 440.292C379.002 440.266 378.963 440.229 378.936 440.184C377.392 437.755 375.108 435.886 372.42 434.856C369.588 433.764 367.2 432.996 364.536 433.764C364.498 433.775 364.459 433.779 364.419 433.774C364.38 433.77 364.342 433.758 364.308 433.739C364.273 433.72 364.243 433.695 364.218 433.664C364.193 433.633 364.175 433.598 364.164 433.56C364.145 433.484 364.155 433.403 364.193 433.334C364.231 433.265 364.293 433.213 364.368 433.188C367.212 432.372 369.696 433.188 372.636 434.292C375.449 435.371 377.839 437.328 379.452 439.872C379.492 439.939 379.505 440.019 379.487 440.096C379.469 440.172 379.422 440.238 379.356 440.28C379.31 440.312 379.256 440.329 379.2 440.328Z" fill="black"/>
<path d="M340.608 435.9C340.608 435.9 344.592 436.38 344.82 433.944C345.048 431.508 331.62 422.016 320.676 429.864C320.676 429.864 324.06 440.736 332.1 442.716C340.14 444.696 340.608 435.9 340.608 435.9Z" fill="#268CBE"/>
<path opacity="0.3" d="M340.488 436.404C340.442 436.403 340.396 436.392 340.354 436.371C340.313 436.351 340.277 436.321 340.248 436.284C336.252 430.908 326.112 428.928 322.632 430.2C322.595 430.215 322.555 430.222 322.515 430.221C322.475 430.22 322.435 430.211 322.399 430.194C322.362 430.178 322.329 430.154 322.302 430.125C322.275 430.095 322.254 430.061 322.24 430.023C322.226 429.985 322.22 429.945 322.222 429.905C322.225 429.865 322.235 429.826 322.252 429.79C322.27 429.754 322.294 429.722 322.325 429.695C322.355 429.669 322.39 429.649 322.428 429.636C326.028 428.34 336.432 430.152 340.728 435.924C340.776 435.988 340.796 436.068 340.785 436.147C340.774 436.225 340.732 436.296 340.668 436.344C340.614 436.38 340.552 436.401 340.488 436.404Z" fill="black"/>
<path opacity="0.3" d="M318.516 456C318.465 456.017 318.411 456.017 318.36 456C318.292 455.96 318.242 455.895 318.222 455.818C318.202 455.742 318.213 455.661 318.252 455.592C320.52 451.872 324.936 449.796 327.372 448.896C327.447 448.869 327.529 448.873 327.601 448.907C327.673 448.94 327.729 449.001 327.756 449.076C327.78 449.151 327.775 449.232 327.741 449.303C327.708 449.375 327.649 449.43 327.576 449.46C325.176 450.336 320.94 452.34 318.768 455.904C318.736 455.939 318.697 455.965 318.653 455.982C318.61 455.999 318.563 456.005 318.516 456Z" fill="black"/>
<path opacity="0.3" d="M314.652 475.452C314.605 475.464 314.555 475.464 314.508 475.452C314.473 475.433 314.443 475.408 314.418 475.377C314.393 475.346 314.374 475.311 314.363 475.273C314.352 475.235 314.349 475.195 314.353 475.156C314.357 475.117 314.369 475.079 314.388 475.044C317.145 469.829 321.598 465.71 327.012 463.368C327.087 463.343 327.169 463.346 327.242 463.377C327.315 463.408 327.374 463.464 327.408 463.536C327.436 463.611 327.434 463.694 327.403 463.768C327.372 463.841 327.313 463.9 327.24 463.932C321.952 466.209 317.602 470.228 314.916 475.32C314.889 475.365 314.85 475.401 314.803 475.424C314.756 475.448 314.704 475.457 314.652 475.452Z" fill="black"/>
<path opacity="0.3" d="M349.74 428.496C349.701 428.507 349.659 428.507 349.62 428.496C349.584 428.48 349.551 428.458 349.524 428.429C349.496 428.4 349.475 428.366 349.462 428.329C349.448 428.292 349.443 428.253 349.445 428.213C349.447 428.174 349.458 428.135 349.476 428.1C350.577 425.789 352.138 423.727 354.063 422.039C355.988 420.351 358.237 419.074 360.672 418.284C360.742 418.274 360.814 418.289 360.874 418.326C360.935 418.364 360.98 418.422 361.001 418.49C361.023 418.557 361.02 418.631 360.992 418.696C360.965 418.762 360.915 418.816 360.852 418.848C358.501 419.616 356.331 420.855 354.474 422.489C352.617 424.123 351.113 426.118 350.052 428.352C350.022 428.406 349.976 428.45 349.92 428.476C349.864 428.501 349.801 428.509 349.74 428.496Z" fill="black"/>
<path opacity="0.3" d="M329.82 509.844L330.444 515.808H367.32L367.944 509.832L329.82 509.844Z" fill="black"/>
<path d="M253.668 483.552H173.772C171.771 483.552 170.148 485.175 170.148 487.176V536.736C170.148 538.737 171.771 540.36 173.772 540.36H253.668C255.67 540.36 257.292 538.737 257.292 536.736V487.176C257.292 485.175 255.67 483.552 253.668 483.552Z" fill="#268CBE"/>
<path opacity="0.5" d="M253.668 483.552H173.772C171.771 483.552 170.148 485.175 170.148 487.176V536.736C170.148 538.737 171.771 540.36 173.772 540.36H253.668C255.67 540.36 257.292 538.737 257.292 536.736V487.176C257.292 485.175 255.67 483.552 253.668 483.552Z" fill="white"/>
<path d="M239.976 492.564H188.508V495.84H239.976V492.564Z" fill="#268CBE"/>
<path d="M184.236 494.196C184.238 494.643 184.108 495.081 183.861 495.454C183.614 495.827 183.262 496.118 182.849 496.29C182.436 496.462 181.982 496.508 181.543 496.421C181.104 496.334 180.701 496.119 180.385 495.803C180.069 495.487 179.853 495.084 179.767 494.645C179.68 494.206 179.726 493.752 179.898 493.339C180.07 492.926 180.361 492.574 180.734 492.327C181.107 492.08 181.545 491.95 181.992 491.952C182.586 491.955 183.155 492.193 183.575 492.613C183.995 493.033 184.233 493.602 184.236 494.196Z" fill="#268CBE"/>
<path d="M210.78 503.448H182.22V532.008H210.78V503.448Z" fill="#268CBE"/>
<path opacity="0.4" d="M210.78 503.448H182.22V532.008H210.78V503.448Z" fill="white"/>
<path d="M209.136 505.092H183.852V530.376H209.136V505.092Z" fill="#268CBE"/>
<path opacity="0.7" d="M209.136 505.092H183.852V530.376H209.136V505.092Z" fill="white"/>
<path d="M183.852 530.376L192.444 518.952L198.12 522.84L204.984 515.256L209.136 519.144V530.376H183.852Z" fill="#268CBE"/>
<path d="M196.5 514.308C198.23 514.308 199.632 512.906 199.632 511.176C199.632 509.446 198.23 508.044 196.5 508.044C194.77 508.044 193.368 509.446 193.368 511.176C193.368 512.906 194.77 514.308 196.5 514.308Z" fill="#268CBE"/>
<path d="M249.792 514.464H216.852V517.74H249.792V514.464Z" fill="#263238"/>
<path d="M231.228 523.332H216.852V526.608H231.228V523.332Z" fill="#263238"/>
<path d="M249.792 505.584H216.852V508.86H249.792V505.584Z" fill="#263238"/>
<path d="M290.748 472.836H194.412C192.411 472.836 190.788 474.458 190.788 476.46V536.736C190.788 538.737 192.411 540.36 194.412 540.36H290.748C292.749 540.36 294.372 538.737 294.372 536.736V476.46C294.372 474.458 292.749 472.836 290.748 472.836Z" fill="#268CBE"/>
<path opacity="0.7" d="M290.748 472.836H194.412C192.411 472.836 190.788 474.458 190.788 476.46V536.736C190.788 538.737 192.411 540.36 194.412 540.36H290.748C292.749 540.36 294.372 538.737 294.372 536.736V476.46C294.372 474.458 292.749 472.836 290.748 472.836Z" fill="white"/>
<path d="M273.792 483.552H212.616V487.44H273.792V483.552Z" fill="#268CBE"/>
<path d="M204.864 488.172C206.342 488.172 207.54 486.974 207.54 485.496C207.54 484.018 206.342 482.82 204.864 482.82C203.386 482.82 202.188 484.018 202.188 485.496C202.188 486.974 203.386 488.172 204.864 488.172Z" fill="#268CBE"/>
<path d="M239.088 496.488H205.14V530.436H239.088V496.488Z" fill="#268CBE"/>
<path opacity="0.4" d="M239.088 496.488H205.14V530.436H239.088V496.488Z" fill="white"/>
<path d="M237.132 498.432H207.084V528.48H237.132V498.432Z" fill="#268CBE"/>
<path opacity="0.7" d="M237.132 498.432H207.084V528.48H237.132V498.432Z" fill="white"/>
<path d="M207.084 528.492L217.284 514.908L224.052 519.54L232.2 510.516L237.132 515.136V528.492H207.084Z" fill="#268CBE"/>
<path d="M225.828 505.668C225.826 506.403 225.605 507.121 225.195 507.731C224.785 508.342 224.203 508.817 223.523 509.096C222.843 509.376 222.096 509.448 221.375 509.303C220.654 509.158 219.992 508.803 219.473 508.282C218.954 507.762 218.601 507.099 218.459 506.377C218.316 505.656 218.39 504.909 218.672 504.23C218.954 503.551 219.431 502.97 220.043 502.562C220.654 502.154 221.373 501.936 222.108 501.936C222.598 501.936 223.082 502.033 223.534 502.22C223.987 502.408 224.397 502.683 224.743 503.03C225.088 503.377 225.362 503.788 225.548 504.241C225.735 504.694 225.83 505.179 225.828 505.668Z" fill="#268CBE"/>
<path d="M285.456 509.568H246.3V513.456H285.456V509.568Z" fill="#263238"/>
<path d="M263.388 520.128H246.3V524.016H263.388V520.128Z" fill="#263238"/>
<path d="M285.456 499.02H246.3V502.908H285.456V499.02Z" fill="#263238"/>
<path d="M483.66 114.348H120.564C116.11 114.348 112.5 117.959 112.5 122.412V398.856C112.5 403.31 116.11 406.92 120.564 406.92H483.66C488.114 406.92 491.724 403.31 491.724 398.856V122.412C491.724 117.959 488.114 114.348 483.66 114.348Z" fill="#268CBE"/>
<path opacity="0.6" d="M483.66 114.348H120.564C116.11 114.348 112.5 117.959 112.5 122.412V398.856C112.5 403.31 116.11 406.92 120.564 406.92H483.66C488.114 406.92 491.724 403.31 491.724 398.856V122.412C491.724 117.959 488.114 114.348 483.66 114.348Z" fill="white"/>
<path d="M456.108 172.728H378.144C376.143 172.728 374.52 174.351 374.52 176.352V208.98C374.52 210.981 376.143 212.604 378.144 212.604H456.108C458.109 212.604 459.732 210.981 459.732 208.98V176.352C459.732 174.351 458.109 172.728 456.108 172.728Z" fill="white"/>
<path d="M442.8 181.536H392.472V184.74H442.8V181.536Z" fill="#268CBE"/>
<path d="M449.064 191.652H383.892V194.856H449.064V191.652Z" fill="#263238"/>
<path d="M416.1 200.16H383.892V203.364H416.1V200.16Z" fill="#263238"/>
<path d="M388.296 183.144C388.296 183.581 388.166 184.008 387.924 184.371C387.681 184.734 387.336 185.017 386.933 185.184C386.529 185.351 386.086 185.395 385.657 185.31C385.229 185.224 384.836 185.014 384.527 184.705C384.218 184.397 384.008 184.003 383.922 183.575C383.837 183.147 383.881 182.703 384.048 182.299C384.215 181.896 384.498 181.551 384.861 181.308C385.224 181.066 385.651 180.936 386.088 180.936C386.378 180.934 386.666 180.991 386.935 181.101C387.203 181.211 387.447 181.374 387.653 181.579C387.858 181.785 388.021 182.029 388.131 182.297C388.242 182.566 388.298 182.854 388.296 183.144Z" fill="#268CBE"/>
<path d="M118.248 113.52H487.068C488.303 113.52 489.487 114.011 490.36 114.884C491.233 115.757 491.724 116.941 491.724 118.176V131.376H112.416V119.376C112.413 118.608 112.561 117.847 112.853 117.137C113.145 116.426 113.574 115.781 114.116 115.237C114.658 114.693 115.301 114.261 116.011 113.966C116.72 113.672 117.48 113.52 118.248 113.52Z" fill="#268CBE"/>
<path opacity="0.3" d="M482.676 122.4C482.676 123.15 482.454 123.883 482.037 124.507C481.62 125.13 481.028 125.616 480.335 125.904C479.642 126.191 478.88 126.266 478.144 126.119C477.409 125.973 476.733 125.612 476.203 125.082C475.672 124.551 475.311 123.876 475.165 123.14C475.019 122.404 475.094 121.642 475.381 120.949C475.668 120.256 476.154 119.664 476.777 119.247C477.401 118.831 478.134 118.608 478.884 118.608C479.889 118.611 480.851 119.012 481.562 119.722C482.272 120.433 482.673 121.395 482.676 122.4Z" fill="white"/>
<path opacity="0.3" d="M471.888 122.4C471.888 123.15 471.666 123.883 471.249 124.507C470.832 125.13 470.24 125.616 469.547 125.904C468.854 126.191 468.092 126.266 467.356 126.119C466.621 125.973 465.945 125.612 465.415 125.082C464.884 124.551 464.523 123.876 464.377 123.14C464.23 122.404 464.306 121.642 464.593 120.949C464.88 120.256 465.366 119.664 465.989 119.247C466.613 118.831 467.346 118.608 468.096 118.608C468.594 118.608 469.087 118.706 469.547 118.897C470.007 119.087 470.425 119.367 470.777 119.719C471.129 120.071 471.409 120.489 471.599 120.949C471.79 121.409 471.888 121.902 471.888 122.4Z" fill="white"/>
<path opacity="0.3" d="M461.112 122.4C461.112 123.15 460.89 123.883 460.473 124.507C460.056 125.13 459.464 125.616 458.771 125.904C458.078 126.191 457.316 126.266 456.58 126.119C455.845 125.973 455.169 125.612 454.639 125.082C454.108 124.551 453.747 123.876 453.601 123.14C453.455 122.404 453.53 121.642 453.817 120.949C454.104 120.256 454.59 119.664 455.213 119.247C455.837 118.831 456.57 118.608 457.32 118.608C457.818 118.608 458.311 118.706 458.771 118.897C459.231 119.087 459.649 119.367 460.001 119.719C460.353 120.071 460.633 120.489 460.823 120.949C461.014 121.409 461.112 121.902 461.112 122.4Z" fill="white"/>
<path d="M201.42 106.164H171.66C171.501 106.164 171.348 106.101 171.236 105.988C171.123 105.876 171.06 105.723 171.06 105.564C171.063 105.406 171.127 105.255 171.239 105.143C171.351 105.031 171.502 104.967 171.66 104.964H201.42C201.579 104.964 201.732 105.027 201.844 105.14C201.957 105.252 202.02 105.405 202.02 105.564C202.02 105.723 201.957 105.876 201.844 105.988C201.732 106.101 201.579 106.164 201.42 106.164Z" fill="#268CBE"/>
<path d="M215.82 106.164H209.616C209.457 106.164 209.304 106.101 209.192 105.988C209.079 105.876 209.016 105.723 209.016 105.564C209.019 105.406 209.083 105.255 209.195 105.143C209.307 105.031 209.458 104.967 209.616 104.964H215.82C215.979 104.964 216.132 105.027 216.244 105.14C216.357 105.252 216.42 105.405 216.42 105.564C216.42 105.723 216.357 105.876 216.244 105.988C216.132 106.101 215.979 106.164 215.82 106.164Z" fill="#268CBE"/>
<path d="M237.12 395.832H129.924V153.06H237.12V395.832ZM131.124 394.632H235.92V154.26H131.124V394.632Z" fill="#268CBE"/>
<path d="M353.232 395.832H246V153.06H353.208L353.232 395.832ZM247.224 394.632H352.032V154.26H247.2L247.224 394.632Z" fill="#268CBE"/>
<path d="M469.332 395.832H362.124V153.06H469.332V395.832ZM363.324 394.632H468.132V154.26H363.324V394.632Z" fill="#268CBE"/>
<path d="M221.856 170.124H143.892C141.891 170.124 140.268 171.747 140.268 173.748V206.376C140.268 208.377 141.891 210 143.892 210H221.856C223.857 210 225.48 208.377 225.48 206.376V173.748C225.48 171.747 223.857 170.124 221.856 170.124Z" fill="white"/>
<path d="M208.548 178.944H158.22V182.148H208.548V178.944Z" fill="#268CBE"/>
<path d="M214.824 189.06H149.652V192.264H214.824V189.06Z" fill="#263238"/>
<path d="M181.86 197.568H149.652V200.772H181.86V197.568Z" fill="#263238"/>
<path d="M154.044 180.552C154.042 180.986 153.911 181.409 153.668 181.769C153.425 182.128 153.082 182.408 152.68 182.572C152.279 182.737 151.837 182.778 151.412 182.692C150.987 182.606 150.597 182.396 150.291 182.089C149.985 181.781 149.777 181.39 149.693 180.964C149.61 180.538 149.654 180.097 149.82 179.697C149.987 179.296 150.268 178.954 150.629 178.713C150.99 178.473 151.414 178.344 151.848 178.344C152.137 178.344 152.424 178.401 152.691 178.512C152.958 178.623 153.201 178.786 153.405 178.991C153.609 179.197 153.771 179.44 153.88 179.708C153.99 179.976 154.046 180.263 154.044 180.552Z" fill="#268CBE"/>
<path d="M221.856 320.58H143.892C141.891 320.58 140.268 322.203 140.268 324.204V356.832C140.268 358.834 141.891 360.456 143.892 360.456H221.856C223.857 360.456 225.48 358.834 225.48 356.832V324.204C225.48 322.203 223.857 320.58 221.856 320.58Z" fill="white"/>
<path d="M208.548 329.4H158.22V332.604H208.548V329.4Z" fill="#268CBE"/>
<path d="M214.824 339.504H149.652V342.708H214.824V339.504Z" fill="#263238"/>
<path d="M181.86 348.012H149.652V351.216H181.86V348.012Z" fill="#263238"/>
<path d="M154.044 330.996C154.044 331.43 153.915 331.855 153.674 332.216C153.433 332.577 153.09 332.859 152.688 333.025C152.287 333.191 151.846 333.235 151.42 333.15C150.994 333.065 150.602 332.856 150.295 332.549C149.988 332.242 149.779 331.85 149.694 331.424C149.609 330.998 149.653 330.557 149.819 330.156C149.985 329.754 150.267 329.411 150.628 329.17C150.989 328.929 151.414 328.8 151.848 328.8C152.43 328.8 152.989 329.031 153.401 329.443C153.813 329.855 154.044 330.414 154.044 330.996Z" fill="#268CBE"/>
<path d="M338.604 240.648H260.64C258.639 240.648 257.016 242.271 257.016 244.272V292.572C257.016 294.574 258.639 296.196 260.64 296.196H338.604C340.605 296.196 342.228 294.574 342.228 292.572V244.272C342.228 242.271 340.605 240.648 338.604 240.648Z" fill="white"/>
<path d="M325.296 249.468H274.968V252.672H325.296V249.468Z" fill="#268CBE"/>
<path d="M270.792 251.064C270.794 251.502 270.667 251.93 270.425 252.295C270.183 252.66 269.838 252.945 269.435 253.114C269.031 253.282 268.586 253.327 268.156 253.242C267.727 253.157 267.332 252.947 267.023 252.637C266.713 252.328 266.503 251.933 266.418 251.504C266.333 251.075 266.378 250.63 266.546 250.226C266.715 249.822 267 249.477 267.365 249.235C267.73 248.994 268.158 248.866 268.596 248.868C269.178 248.868 269.737 249.1 270.149 249.511C270.561 249.923 270.792 250.482 270.792 251.064Z" fill="#268CBE"/>
<path d="M338.604 175.38H260.64C258.639 175.38 257.016 177.003 257.016 179.004V227.304C257.016 229.306 258.639 230.928 260.64 230.928H338.604C340.605 230.928 342.228 229.306 342.228 227.304V179.004C342.228 177.003 340.605 175.38 338.604 175.38Z" fill="white"/>
<path d="M325.296 184.2H274.968V187.404H325.296V184.2Z" fill="#268CBE"/>
<path d="M270.792 185.796C270.794 186.234 270.667 186.662 270.425 187.027C270.183 187.392 269.838 187.677 269.435 187.846C269.031 188.014 268.586 188.059 268.156 187.974C267.727 187.889 267.332 187.679 267.023 187.369C266.713 187.06 266.503 186.665 266.418 186.236C266.333 185.806 266.378 185.362 266.546 184.958C266.715 184.554 267 184.209 267.365 183.967C267.73 183.726 268.158 183.598 268.596 183.6C269.178 183.6 269.737 183.831 270.149 184.243C270.561 184.655 270.792 185.214 270.792 185.796Z" fill="#268CBE"/>
<path d="M296.736 194.844H268.812V222.768H296.736V194.844Z" fill="#268CBE"/>
<path opacity="0.4" d="M296.736 194.844H268.812V222.768H296.736V194.844Z" fill="white"/>
<path d="M295.128 196.452H270.408V221.172H295.128V196.452Z" fill="#268CBE"/>
<path opacity="0.7" d="M295.128 196.452H270.408V221.172H295.128V196.452Z" fill="white"/>
<path d="M270.408 221.172L278.808 210L284.376 213.804L291.072 206.388L295.14 210.192V221.172H270.408Z" fill="#268CBE"/>
<path d="M285.84 202.392C285.842 203.001 285.664 203.596 285.327 204.103C284.991 204.61 284.511 205.006 283.949 205.24C283.387 205.474 282.769 205.536 282.172 205.418C281.575 205.299 281.026 205.007 280.596 204.576C280.165 204.146 279.873 203.597 279.754 203C279.636 202.403 279.698 201.785 279.932 201.223C280.166 200.661 280.562 200.181 281.069 199.845C281.576 199.508 282.171 199.33 282.78 199.332C283.591 199.335 284.367 199.659 284.94 200.232C285.513 200.805 285.837 201.581 285.84 202.392Z" fill="#268CBE"/>
<path d="M334.884 205.608H302.676V208.812H334.884V205.608Z" fill="#263238"/>
<path d="M316.728 214.296H302.676V217.5H316.728V214.296Z" fill="#263238"/>
<path d="M334.884 196.932H302.676V200.136H334.884V196.932Z" fill="#263238"/>
<path d="M296.736 273.348L302.184 258.384C304.213 259.121 306.071 260.263 307.643 261.743C309.216 263.222 310.469 265.007 311.328 266.988L296.736 273.348Z" fill="#268CBE"/>
<path opacity="0.6" d="M296.736 273.348L302.184 258.384C304.213 259.121 306.071 260.263 307.643 261.743C309.216 263.222 310.469 265.007 311.328 266.988L296.736 273.348Z" fill="white"/>
<path d="M296.736 273.348L301.38 288.576C298.968 289.313 296.416 289.466 293.934 289.023C291.451 288.581 289.109 287.555 287.101 286.03C285.092 284.505 283.474 282.526 282.381 280.253C281.287 277.981 280.748 275.482 280.809 272.961C280.87 270.44 281.529 267.97 282.732 265.753C283.934 263.537 285.646 261.637 287.726 260.212C289.806 258.786 292.195 257.875 294.696 257.553C297.197 257.231 299.739 257.508 302.112 258.36L296.736 273.348Z" fill="#268CBE"/>
<path d="M296.736 273.348L311.364 267.06C312.246 269.112 312.687 271.326 312.658 273.56C312.629 275.793 312.13 277.995 311.194 280.023C310.258 282.052 308.906 283.86 307.225 285.331C305.545 286.803 303.574 287.904 301.44 288.564L296.736 273.348Z" fill="#268CBE"/>
<path opacity="0.3" d="M296.736 273.348L311.364 267.06C312.246 269.112 312.687 271.326 312.658 273.56C312.629 275.793 312.13 277.995 311.194 280.023C310.258 282.052 308.906 283.86 307.225 285.331C305.545 286.803 303.574 287.904 301.44 288.564L296.736 273.348Z" fill="black"/>
<path d="M399.888 225.432H377.676V247.644H399.888V225.432Z" fill="#268CBE"/>
<path d="M283.992 308.412H261.78V330.624H283.992V308.412Z" fill="#268CBE"/>
<path d="M310.884 308.412H288.672V330.624H310.884V308.412Z" fill="#268CBE"/>
<path d="M338.904 308.412H316.692V330.624H338.904V308.412Z" fill="#263238"/>
<path d="M284.124 337.068H261.912V359.28H284.124V337.068Z" fill="white"/>
<path d="M428.736 225.432H406.524V247.644H428.736V225.432Z" fill="white"/>
<path d="M151.416 120.084C148.649 127.803 143.655 134.529 137.065 139.41C130.476 144.291 122.587 147.108 114.396 147.505C106.206 147.903 98.0812 145.862 91.0503 141.642C84.0193 137.422 78.3978 131.211 74.8966 123.796C71.3954 116.38 70.1718 108.093 71.3805 99.9827C72.5893 91.872 76.1761 84.3019 81.6873 78.2297C87.1985 72.1576 94.3867 67.8561 102.343 65.8693C110.299 63.8825 118.665 64.2997 126.384 67.068C136.733 70.7796 145.184 78.4501 149.879 88.3923C154.573 98.3345 155.126 109.734 151.416 120.084Z" fill="#268CBE"/>
<path opacity="0.3" d="M151.416 120.084C148.649 127.803 143.655 134.529 137.065 139.41C130.476 144.291 122.587 147.108 114.396 147.505C106.206 147.903 98.0812 145.862 91.0503 141.642C84.0193 137.422 78.3978 131.211 74.8966 123.796C71.3954 116.38 70.1718 108.093 71.3805 99.9827C72.5893 91.872 76.1761 84.3019 81.6873 78.2297C87.1985 72.1576 94.3867 67.8561 102.343 65.8693C110.299 63.8825 118.665 64.2997 126.384 67.068C136.733 70.7796 145.184 78.4501 149.879 88.3923C154.573 98.3345 155.126 109.734 151.416 120.084Z" fill="black"/>
<path d="M138.767 134.35C154.958 118.159 154.958 91.9079 138.767 75.7168C122.575 59.5257 96.3244 59.5257 80.1333 75.7168C63.9422 91.9079 63.9422 118.159 80.1333 134.35C96.3244 150.541 122.575 150.541 138.767 134.35Z" fill="#268CBE"/>
<path d="M125.113 135.712C142.052 127.059 148.769 106.313 140.116 89.3741C131.463 72.4356 110.717 65.7188 93.7782 74.3717C76.8396 83.0247 70.1229 103.771 78.7758 120.709C87.4288 137.648 108.175 144.364 125.113 135.712Z" fill="white"/>
<path d="M105.372 134.268L106.488 126.168H106.968L106.044 134.4L105.372 134.268ZM92.82 129.468C92.6246 129.347 92.4363 129.215 92.256 129.072L97.056 122.448L97.452 122.724L92.82 129.468ZM119.412 132.876L116.64 125.184L117.12 125.004L120.036 132.648L119.412 132.876ZM83.412 118.956L83.1 118.356L90.408 114.684L90.636 115.116L83.412 118.956ZM131.196 125.064L125.196 119.544L125.532 119.172L131.76 124.464L131.628 124.632L131.196 125.064ZM79.944 105.216V104.532L88.128 104.664C88.128 104.832 88.128 104.988 88.128 105.156L79.944 105.216ZM130.08 110.4L130.188 109.956L138.144 111.84C138.144 112.068 138.036 112.296 137.976 112.524L130.08 110.4ZM90.48 95.208L83.28 91.428L83.58 90.852L90.78 94.752L90.48 95.208ZM130.224 100.212L130.104 99.732L138 97.788C138 98.004 138.108 98.22 138.156 98.448L130.224 100.212ZM97.2 87.6L92.508 80.904L93.048 80.52L97.62 87.312L97.2 87.6ZM125.616 91.2L125.292 90.84L131.364 85.368L131.82 85.884L125.616 91.2ZM106.8 83.892L105.768 75.78L106.464 75.696L107.268 83.832L106.8 83.892ZM117.336 85.2L116.88 85.02L119.724 77.352L120.36 77.604L117.336 85.2Z" fill="black"/>
<path d="M109.632 107.04C109.514 107.038 109.398 107.004 109.296 106.944L95.688 97.8599C95.5565 97.7719 95.465 97.6356 95.4336 97.4805C95.4021 97.3254 95.4332 97.1642 95.52 97.0319C95.6102 96.8996 95.7487 96.8079 95.9057 96.7764C96.0628 96.745 96.2258 96.7764 96.36 96.8639L109.332 105.516L115.332 88.7159C115.357 88.6397 115.397 88.5694 115.45 88.509C115.503 88.4486 115.567 88.3994 115.639 88.3643C115.712 88.3293 115.79 88.309 115.87 88.3048C115.95 88.3006 116.03 88.3124 116.106 88.3397C116.181 88.367 116.25 88.4092 116.309 88.4637C116.368 88.5181 116.416 88.5839 116.449 88.657C116.482 88.7301 116.5 88.8091 116.502 88.8893C116.504 88.9695 116.489 89.0493 116.46 89.1239L110.22 106.596C110.188 106.681 110.138 106.758 110.074 106.822C110.01 106.886 109.933 106.936 109.848 106.968L109.632 107.04Z" fill="black"/>
<path d="M112.068 105.96C111.934 106.45 111.659 106.889 111.276 107.222C110.893 107.555 110.42 107.767 109.917 107.831C109.414 107.896 108.902 107.81 108.448 107.584C107.994 107.358 107.616 107.003 107.363 106.563C107.111 106.123 106.994 105.618 107.028 105.112C107.062 104.605 107.246 104.12 107.555 103.718C107.865 103.316 108.286 103.015 108.767 102.852C109.248 102.689 109.766 102.673 110.256 102.804C110.583 102.892 110.889 103.043 111.157 103.249C111.425 103.455 111.649 103.712 111.818 104.006C111.986 104.299 112.095 104.622 112.138 104.958C112.181 105.293 112.157 105.634 112.068 105.96Z" fill="black"/>
<path opacity="0.3" d="M79.044 95.2559C80.9535 89.9218 84.1499 85.1413 88.3496 81.3386C92.5494 77.5358 97.6227 74.8282 103.12 73.4561C108.617 72.0839 114.367 72.0896 119.861 73.4725C125.356 74.8554 130.424 77.5729 134.616 81.3839C131.459 77.963 127.641 75.2175 123.393 73.3134C119.146 71.4093 114.556 70.3861 109.901 70.3057C105.247 70.2252 100.625 71.0892 96.3135 72.8454C92.0024 74.6015 88.0921 77.2134 84.8187 80.5233C81.5454 83.8332 78.9771 87.7722 77.2689 92.1026C75.5607 96.4329 74.748 101.065 74.8801 105.718C75.0122 110.371 76.0863 114.949 78.0374 119.176C79.9885 123.402 82.7762 127.189 86.232 130.308C81.9389 125.684 78.9982 119.969 77.7307 113.788C76.4631 107.607 76.9174 101.197 79.044 95.2559Z" fill="black"/>
<path d="M526.404 155.748H498.336C494.882 155.751 491.57 157.126 489.129 159.569C486.687 162.013 485.316 165.326 485.316 168.78V184.5C485.316 187.954 486.687 191.267 489.129 193.711C491.57 196.154 494.882 197.529 498.336 197.532H504.72L505.74 204.732L513.48 197.532H526.404C529.858 197.529 533.17 196.154 535.611 193.711C538.053 191.267 539.424 187.954 539.424 184.5V168.78C539.424 165.326 538.053 162.013 535.611 159.569C533.17 157.126 529.858 155.751 526.404 155.748Z" fill="#268CBE"/>
<path d="M519 176.688C519 177.35 519.196 177.998 519.564 178.548C519.932 179.099 520.455 179.528 521.067 179.781C521.679 180.035 522.352 180.101 523.001 179.972C523.651 179.843 524.247 179.524 524.715 179.055C525.184 178.587 525.502 177.991 525.632 177.341C525.761 176.692 525.695 176.019 525.441 175.407C525.188 174.795 524.759 174.272 524.208 173.904C523.657 173.536 523.01 173.34 522.348 173.34C521.46 173.34 520.608 173.693 519.981 174.321C519.353 174.949 519 175.8 519 176.688Z" fill="white"/>
<path d="M507.6 176.688C507.6 177.35 507.796 177.998 508.164 178.548C508.532 179.099 509.055 179.528 509.667 179.781C510.279 180.035 510.952 180.101 511.601 179.972C512.251 179.843 512.847 179.524 513.315 179.055C513.784 178.587 514.102 177.991 514.232 177.341C514.361 176.692 514.295 176.019 514.041 175.407C513.788 174.795 513.359 174.272 512.808 173.904C512.257 173.536 511.61 173.34 510.948 173.34C510.06 173.34 509.208 173.693 508.581 174.321C507.953 174.949 507.6 175.8 507.6 176.688Z" fill="white"/>
<path d="M495.84 176.688C495.838 177.353 496.033 178.004 496.4 178.558C496.768 179.112 497.292 179.545 497.906 179.801C498.52 180.057 499.196 180.125 499.848 179.997C500.501 179.869 501.1 179.55 501.572 179.08C502.043 178.611 502.364 178.012 502.495 177.36C502.625 176.708 502.559 176.032 502.305 175.417C502.051 174.802 501.621 174.277 501.068 173.907C500.515 173.537 499.865 173.34 499.2 173.34C498.311 173.34 497.458 173.692 496.828 174.32C496.199 174.947 495.843 175.799 495.84 176.688Z" fill="white"/>
<path d="M527.124 153.204H509.328C509.221 153.222 509.124 153.276 509.054 153.359C508.984 153.441 508.946 153.546 508.946 153.654C508.946 153.762 508.984 153.867 509.054 153.949C509.124 154.032 509.221 154.087 509.328 154.104H527.124C527.231 154.087 527.328 154.032 527.398 153.949C527.468 153.867 527.506 153.762 527.506 153.654C527.506 153.546 527.468 153.441 527.398 153.359C527.328 153.276 527.231 153.222 527.124 153.204Z" fill="#268CBE"/>
<path d="M507.096 153.204H505.608C505.487 153.204 505.371 153.252 505.286 153.338C505.2 153.423 505.152 153.539 505.152 153.66C505.155 153.779 505.205 153.892 505.29 153.975C505.375 154.058 505.489 154.104 505.608 154.104H507.096C507.203 154.087 507.3 154.032 507.37 153.949C507.44 153.867 507.478 153.762 507.478 153.654C507.478 153.546 507.44 153.441 507.37 153.359C507.3 153.276 507.203 153.222 507.096 153.204Z" fill="#268CBE"/>
<path d="M511.668 323.364C511.668 323.364 511.056 333.972 505.884 352.548C502.634 364.024 498.691 375.293 494.076 386.292C491.496 392.508 488.532 399.108 485.136 406.044C483.6 409.2 481.956 412.416 480.24 415.704C478.26 471.924 446.712 529.08 446.712 529.08C444.96 529.98 438.852 528.996 438.9 527.22C443.568 519.804 452.76 447.756 458.688 413.592C459.06 408.936 459.588 403.992 460.248 398.82C461.976 385.02 464.544 370.02 467.076 356.82C470.988 336.036 474.72 319.74 474.72 319.74L485.112 320.748L511.668 323.364Z" fill="#E1BFB9"/>
<path d="M524.076 401.196C523.236 407.244 522.156 413.716 520.836 420.612C532.104 458.208 508.92 531.6 508.92 531.6C505.008 532.38 501.54 531.876 499.776 530.556C504.144 508.44 500.976 450.948 497.604 416.556C497.304 413.436 496.92 410.016 496.512 406.356C495.816 400.152 494.976 393.324 494.112 386.256C492.612 374.448 490.932 362.016 489.42 350.988C487.56 337.668 485.952 326.4 485.112 320.736C484.776 318.252 484.572 316.848 484.572 316.848L517.08 320.4C517.08 320.4 525.36 329.676 526.68 358.644C527.092 372.877 526.22 387.119 524.076 401.196Z" fill="#E1BFB9"/>
<path d="M509.736 541.2H507.912L507.408 538.968L501.408 541.692H486.192C486.192 541.692 483.792 539.292 490.992 537.336C491.349 537.24 491.694 537.107 492.024 536.94C495.876 535.128 501.372 529.008 501.372 529.008H509.772C510.023 529.394 510.251 529.795 510.456 530.208C511.356 532.02 512.892 535.932 509.736 541.2Z" fill="#263238"/>
<path d="M510.444 530.196C509.34 528.996 504.324 534.36 500.652 536.196C497.364 537.816 493.68 538.596 492.06 536.892C495.912 535.068 501.984 527.16 501.984 527.16H508.692C508.692 527.16 510 529.404 510.444 530.196Z" fill="#E1BFB9"/>
<path d="M446.4 541.2H444.624L444.12 538.968L438.12 541.692H422.844C422.844 541.692 420.444 539.292 427.644 537.336C427.997 537.239 428.339 537.107 428.664 536.94C432.528 535.128 438.024 529.008 438.024 529.008H446.4C446.662 529.387 446.891 529.789 447.084 530.208C447.996 532.02 449.568 535.932 446.4 541.2Z" fill="#263238"/>
<path d="M447.072 530.196C445.98 528.996 440.976 534.36 437.292 536.196C434.016 537.816 430.332 538.596 428.688 536.892C432.552 535.068 439.488 526.572 439.488 526.572L445.392 527.16C445.392 527.16 446.688 529.404 447.072 530.196Z" fill="#E1BFB9"/>
<path d="M474.096 316.884H517.296L518.496 322.452C518.496 322.452 534.372 344.412 526.32 399.252C526.32 399.252 491.52 403.26 458.82 396.24C458.82 396.24 466.164 339.972 473.844 321.6L474.096 316.884Z" fill="#263238"/>
<path d="M458.4 231.528C459.688 235.69 460.462 239.994 460.704 244.344C460.704 244.344 484.224 242.064 488.988 235.86C493.752 229.656 491.04 200.628 478.188 201.06C474.638 201.216 471.177 202.218 468.092 203.982C465.007 205.746 462.388 208.221 460.452 211.201C458.517 214.181 457.321 217.58 456.964 221.116C456.607 224.651 457.099 228.221 458.4 231.528Z" fill="#263238"/>
<path d="M464.1 206.952C462.074 208.812 460.556 211.158 459.689 213.768C458.821 216.378 458.634 219.165 459.144 221.868C460.86 227.22 463.476 230.748 465.924 235.8L474.612 201.084C471.336 202.38 469.68 201.96 464.1 206.952Z" fill="#263238"/>
<path d="M482.328 201.168C494.148 203.184 499.644 209.46 500.436 217.584C501.228 225.708 493.236 236.196 491.724 236.844L486.984 238.584C486.984 238.584 492.216 226.488 490.044 223.26C487.872 220.032 486.3 219.984 486.3 219.984L482.328 201.168Z" fill="#263238"/>
<path d="M471.072 202.8C476.28 199.116 482.436 201.228 486.084 202.8C488.119 203.975 489.882 205.567 491.257 207.472C492.633 209.376 493.589 211.551 494.064 213.852C494.856 218.208 495.816 223.512 493.584 226.272C492.968 227.054 492.197 227.7 491.319 228.168C490.442 228.637 489.476 228.919 488.484 228.996L463.284 213C464.974 208.995 467.654 205.485 471.072 202.8Z" fill="#263238"/>
<path d="M481.2 261.972C483.18 263.376 484.584 262.524 486.636 261.216C498.96 254.016 493.896 248.412 493.896 248.412C490.86 245.94 490.116 242.412 490.056 236.928C490.045 236.766 490.021 236.606 489.984 236.448C489.85 235.735 489.493 235.084 488.964 234.588C488.289 233.917 487.377 233.541 486.426 233.541C485.475 233.541 484.562 233.917 483.888 234.588L478.296 237.348V237.6C478.812 240.528 479.304 242.784 479.616 244.572C479.629 244.794 479.662 245.015 479.712 245.232C479.725 245.454 479.757 245.675 479.808 245.892C480.108 248.364 476.628 252.72 475.092 253.884C474.216 254.64 474.564 257.22 481.2 261.972Z" fill="#E1BFB9"/>
<path d="M490.86 215.712C492.48 225.84 493.38 230.112 489.576 236.448C483.852 246.048 471.36 246.048 466.776 236.604C462.708 228.12 460.716 213 469.392 206.604C478.068 200.208 489.24 205.56 490.86 215.712Z" fill="#E1BFB9"/>
<path d="M496.908 223.536C496.636 224.594 496.158 225.588 495.501 226.461C494.844 227.335 494.021 228.069 493.08 228.624C490.68 230.004 488.1 226.128 488.28 223.236C488.379 221.93 488.941 220.702 489.865 219.773C490.789 218.845 492.014 218.277 493.32 218.172C496.008 218.004 497.616 220.8 496.908 223.536Z" fill="#E1BFB9"/>
<path opacity="0.2" d="M491.184 224.82C491.114 224.819 491.047 224.795 490.993 224.752C490.938 224.708 490.9 224.648 490.884 224.58C490.668 223.523 490.88 222.424 491.474 221.524C492.068 220.624 492.995 219.997 494.052 219.78C494.131 219.766 494.213 219.783 494.28 219.827C494.347 219.872 494.395 219.941 494.412 220.02C494.426 220.098 494.409 220.178 494.364 220.243C494.319 220.308 494.25 220.353 494.172 220.368C493.276 220.553 492.49 221.084 491.985 221.846C491.479 222.608 491.295 223.539 491.472 224.436C491.481 224.474 491.482 224.514 491.475 224.554C491.469 224.593 491.454 224.63 491.433 224.663C491.412 224.697 491.384 224.726 491.352 224.749C491.319 224.771 491.283 224.787 491.244 224.796L491.184 224.82Z" fill="black"/>
<path d="M478.5 222.456C478.74 223.524 478.404 224.544 477.744 224.736C477.084 224.928 476.376 224.208 476.136 223.14C475.896 222.072 476.232 221.052 476.892 220.86C477.552 220.668 478.26 221.376 478.5 222.456Z" fill="#263238"/>
<path d="M468.648 225.084C468.876 226.128 468.528 227.112 467.88 227.304C467.232 227.496 466.524 226.812 466.296 225.78C466.068 224.748 466.404 223.74 467.064 223.56C467.724 223.38 468.42 224.052 468.648 225.084Z" fill="#263238"/>
<path d="M479.58 218.208C479.519 218.234 479.454 218.248 479.388 218.248C479.322 218.248 479.257 218.234 479.196 218.208C478.651 217.917 478.043 217.765 477.426 217.765C476.809 217.765 476.201 217.917 475.656 218.208C475.602 218.242 475.542 218.265 475.479 218.275C475.416 218.285 475.352 218.282 475.29 218.266C475.228 218.251 475.17 218.223 475.119 218.184C475.069 218.145 475.027 218.096 474.996 218.04C474.936 217.916 474.924 217.774 474.961 217.641C474.999 217.509 475.084 217.394 475.2 217.32C475.884 216.944 476.652 216.747 477.432 216.747C478.212 216.747 478.98 216.944 479.664 217.32C479.78 217.386 479.865 217.494 479.903 217.621C479.941 217.749 479.929 217.886 479.868 218.004C479.797 218.102 479.696 218.173 479.58 218.208Z" fill="#263238"/>
<path d="M463.98 220.98C463.924 220.975 463.869 220.959 463.82 220.932C463.77 220.905 463.727 220.868 463.692 220.824C463.62 220.715 463.589 220.584 463.604 220.455C463.62 220.325 463.681 220.205 463.776 220.116C464.262 219.565 464.882 219.15 465.576 218.91C466.27 218.67 467.014 218.614 467.736 218.748C467.8 218.766 467.859 218.797 467.911 218.838C467.963 218.879 468.007 218.93 468.039 218.988C468.071 219.046 468.092 219.11 468.1 219.175C468.107 219.241 468.102 219.308 468.084 219.372C468.066 219.436 468.035 219.495 467.994 219.547C467.953 219.6 467.902 219.643 467.844 219.675C467.786 219.708 467.722 219.728 467.656 219.736C467.591 219.743 467.524 219.738 467.46 219.72C466.884 219.627 466.294 219.68 465.745 219.875C465.195 220.07 464.704 220.401 464.316 220.836C464.272 220.881 464.22 220.917 464.163 220.942C464.105 220.967 464.043 220.98 463.98 220.98Z" fill="#263238"/>
<path d="M471.192 223.872C470.871 226.243 470.308 228.575 469.512 230.832C469.469 230.948 469.453 231.072 469.466 231.195C469.479 231.318 469.521 231.437 469.587 231.541C469.653 231.646 469.742 231.734 469.848 231.798C469.954 231.862 470.073 231.901 470.196 231.912C471.136 231.937 472.066 231.705 472.884 231.24L471.192 223.872Z" fill="#CD877B"/>
<path d="M477.276 220.8L474.876 220.884C474.876 220.884 476.556 222.252 477.276 220.8Z" fill="#263238"/>
<path d="M467.304 223.512L464.904 223.596C464.904 223.596 466.584 224.964 467.304 223.512Z" fill="#263238"/>
<path d="M474 233.892C474.902 234.663 475.745 235.501 476.52 236.4C476.7 236.292 476.88 236.196 477.048 236.076C479.448 234.588 480.024 233.112 479.976 231.924C479.941 231.347 479.768 230.788 479.472 230.292C479.314 230.005 479.116 229.743 478.884 229.512C477.837 231.088 476.456 232.415 474.84 233.4C474.36 233.7 474 233.892 474 233.892Z" fill="#263238"/>
<path d="M474.84 233.364L475.596 234.084C477.816 232.668 479.196 231.372 479.472 230.256C479.314 229.969 479.116 229.707 478.884 229.476C477.837 231.052 476.456 232.379 474.84 233.364Z" fill="white"/>
<path d="M477.048 236.04C479.448 234.552 480.024 233.076 479.976 231.888C479.084 232.473 478.304 233.213 477.672 234.072C477.262 234.646 477.043 235.335 477.048 236.04Z" fill="#DE5753"/>
<path d="M487.812 218.808C487.812 218.808 480.84 213.264 479.64 207.66C479.64 207.66 458.16 206.844 463.308 224.304C463.308 224.304 456.108 209.712 472.452 204.132C488.796 198.552 496.344 219.936 490.104 228.996C490.056 228.924 492.132 222.288 487.812 218.808Z" fill="#263238"/>
<path d="M465.18 207.732C463.35 210.266 462.375 213.318 462.396 216.444C462.792 218.64 466.08 219.684 466.08 219.684L468.852 214.224L469.62 218.436C472.105 217.806 474.359 216.483 476.122 214.622C477.885 212.762 479.084 210.439 479.58 207.924L475.2 202.572C475.2 202.572 466.86 205.644 465.18 207.732Z" fill="#263238"/>
<path d="M516.12 299.892L519.192 322.872L471.492 319.716C471.792 326.628 476.112 302.916 475.596 299.316C474.168 294.9 466.884 288.216 464.952 282.876C462.888 275.448 467.148 255.036 468.552 254.388C470.244 253.608 472.344 253.68 473.628 253.104C478.656 251.904 490.104 247.836 495.228 247.2C496.212 247.104 497.196 246.924 498.18 246.816C498.18 246.816 517.56 245.88 518.412 253.764C515.597 268.969 514.827 284.483 516.12 299.892Z" fill="#268CBE"/>
<path opacity="0.2" d="M517.38 294.564L507.18 269.172L510.396 292.128L501.732 298.44L517.38 294.564Z" fill="black"/>
<path opacity="0.2" d="M495.492 314.82C496.116 314.736 500.376 309.336 500.376 309.336H517.38L516.684 304.092C517.164 303.72 496.884 304.62 496.884 304.62L495.492 310.992V314.82Z" fill="black"/>
<path d="M510.084 248.676C510.912 248.772 514.272 246.864 520.356 254.676C526.44 262.488 535.596 299.244 533.556 303.108C531.516 306.972 495.456 307.632 495.456 307.632V298.284L515.712 293.688C515.712 293.688 504.216 266.016 506.028 258.888C507.84 251.76 510.084 248.676 510.084 248.676Z" fill="#268CBE"/>
<path d="M500.976 246.672C500.259 250.566 498.443 254.174 495.743 257.069C493.042 259.965 489.57 262.029 485.736 263.016C482.988 263.676 479.916 262.164 477.744 260.364C475.555 258.531 474.092 255.978 473.616 253.164C483.156 249.372 491.796 246 500.976 246.672Z" fill="#E1BFB9"/>
<path d="M470.544 254.184C470.544 254.184 466.728 253.764 463.344 257.964C458.352 264.204 439.692 282.9 439.692 282.9L412.8 270.204L408.264 278.856C408.264 278.856 434.184 298.596 441.072 298.548C452.184 298.476 468.252 282.228 468.252 282.228L470.544 254.184Z" fill="#268CBE"/>
<path d="M491.856 267.264H410.616C408.614 267.264 406.992 268.886 406.992 270.888V321.324C406.992 323.325 408.614 324.948 410.616 324.948H491.856C493.857 324.948 495.48 323.325 495.48 321.324V270.888C495.48 268.886 493.857 267.264 491.856 267.264Z" fill="#268CBE"/>
<path opacity="0.9" d="M491.856 267.264H410.616C408.614 267.264 406.992 268.886 406.992 270.888V321.324C406.992 323.325 408.614 324.948 410.616 324.948H491.856C493.857 324.948 495.48 323.325 495.48 321.324V270.888C495.48 268.886 493.857 267.264 491.856 267.264Z" fill="white"/>
<path d="M477.9 276.42H425.64V279.744H477.9V276.42Z" fill="#268CBE"/>
<path d="M419.016 280.368C420.275 280.368 421.296 279.347 421.296 278.088C421.296 276.829 420.275 275.808 419.016 275.808C417.757 275.808 416.736 276.829 416.736 278.088C416.736 279.347 417.757 280.368 419.016 280.368Z" fill="#268CBE"/>
<path d="M448.236 287.484H419.244V316.476H448.236V287.484Z" fill="#268CBE"/>
<path opacity="0.4" d="M448.236 287.484H419.244V316.476H448.236V287.484Z" fill="white"/>
<path d="M446.58 289.14H420.912V314.808H446.58V289.14Z" fill="#268CBE"/>
<path opacity="0.7" d="M446.58 289.14H420.912V314.808H446.58V289.14Z" fill="white"/>
<path d="M420.9 314.82L429.624 303.216L435.396 307.164L442.356 299.46L446.58 303.408V314.82H420.9Z" fill="#268CBE"/>
<path d="M436.92 295.32C436.92 295.949 436.733 296.564 436.384 297.087C436.035 297.61 435.538 298.017 434.957 298.258C434.376 298.499 433.736 298.561 433.12 298.439C432.503 298.316 431.936 298.013 431.491 297.568C431.047 297.124 430.744 296.557 430.621 295.94C430.498 295.323 430.561 294.684 430.802 294.103C431.043 293.522 431.45 293.025 431.973 292.676C432.496 292.326 433.111 292.14 433.74 292.14C434.583 292.14 435.392 292.475 435.989 293.071C436.585 293.668 436.92 294.477 436.92 295.32Z" fill="#268CBE"/>
<path d="M487.872 298.656H454.416V301.98H487.872V298.656Z" fill="#263238"/>
<path d="M469.008 307.668H454.416V310.992H469.008V307.668Z" fill="#263238"/>
<path d="M487.872 289.644H454.416V292.968H487.872V289.644Z" fill="#263238"/>
<path d="M495.396 299.76C495.396 299.76 487.128 301.86 486.36 303.504C485.592 305.148 488.184 305.016 488.184 305.016C488.184 305.016 485.34 305.328 485.316 306.552C485.316 308.016 487.98 307.872 487.98 307.872C487.98 307.872 485.676 308.232 485.724 309.312C485.772 310.392 488.844 310.512 488.844 310.512C488.844 310.512 487.272 311.064 487.728 311.808C488.184 312.552 494.7 312.792 496.62 311.568C498.54 310.344 498.54 301.968 498.168 300.156C497.796 298.344 497.628 297.348 495.336 294.576L495.396 299.772V299.76Z" fill="#E1BFB9"/>
<path opacity="0.2" d="M488.184 305.16L493.104 304.38C493.176 304.38 493.212 304.308 493.212 304.224C493.206 304.191 493.188 304.162 493.161 304.142C493.135 304.122 493.101 304.112 493.068 304.116L488.148 304.896C488.115 304.905 488.086 304.926 488.069 304.955C488.051 304.984 488.045 305.019 488.052 305.052C488.053 305.068 488.058 305.083 488.066 305.097C488.073 305.111 488.083 305.123 488.095 305.134C488.108 305.144 488.122 305.151 488.137 305.156C488.152 305.16 488.168 305.162 488.184 305.16Z" fill="black"/>
<path opacity="0.2" d="M488.136 308.004L492.936 307.632C492.968 307.624 492.996 307.605 493.015 307.579C493.035 307.553 493.045 307.521 493.044 307.488C493.044 307.404 493.044 307.368 492.912 307.356L488.112 307.728C488.078 307.736 488.048 307.757 488.029 307.786C488.009 307.814 488 307.849 488.004 307.884C488.016 307.956 488.064 308.016 488.136 308.004Z" fill="black"/>
<path opacity="0.2" d="M489.012 310.632L492.612 310.452C492.629 310.45 492.646 310.446 492.662 310.438C492.677 310.429 492.691 310.418 492.702 310.405C492.713 310.392 492.722 310.376 492.727 310.359C492.732 310.343 492.734 310.325 492.732 310.308C492.729 310.274 492.714 310.242 492.69 310.218C492.666 310.194 492.634 310.179 492.6 310.176L489 310.356C488.983 310.357 488.967 310.362 488.952 310.371C488.937 310.379 488.924 310.39 488.913 310.404C488.903 310.417 488.896 310.433 488.892 310.45C488.889 310.466 488.889 310.483 488.892 310.5C488.892 310.533 488.904 310.565 488.926 310.589C488.949 310.614 488.979 310.629 489.012 310.632Z" fill="black"/>
<path d="M407.016 295.74C407.016 295.74 415.284 297.84 416.052 299.484C416.82 301.128 414.228 300.996 414.228 300.996C414.228 300.996 417.06 301.308 417.096 302.532C417.096 303.996 414.42 303.852 414.42 303.852C414.42 303.852 416.724 304.212 416.676 305.292C416.628 306.372 413.568 306.492 413.568 306.492C413.568 306.492 415.14 307.044 414.684 307.788C414.228 308.532 407.712 308.772 405.792 307.548C403.872 306.324 403.86 297.948 404.244 296.136C404.628 294.324 404.784 293.328 407.076 290.556L407.016 295.752V295.74Z" fill="#E1BFB9"/>
<path opacity="0.2" d="M414.216 301.2L409.296 300.42C409.263 300.412 409.234 300.39 409.216 300.361C409.199 300.332 409.193 300.297 409.2 300.264C409.205 300.232 409.221 300.203 409.245 300.181C409.269 300.159 409.3 300.146 409.332 300.144L414.252 300.936C414.269 300.939 414.286 300.945 414.301 300.955C414.316 300.964 414.329 300.977 414.339 300.991C414.349 301.006 414.356 301.022 414.36 301.039C414.363 301.057 414.363 301.075 414.36 301.092C414.352 301.124 414.333 301.152 414.307 301.171C414.281 301.191 414.249 301.201 414.216 301.2Z" fill="black"/>
<path opacity="0.2" d="M414.276 303.984L409.476 303.612C409.446 303.603 409.42 303.585 409.402 303.56C409.383 303.535 409.373 303.505 409.373 303.474C409.373 303.443 409.383 303.413 409.402 303.388C409.42 303.363 409.446 303.345 409.476 303.336L414.276 303.708C414.293 303.711 414.31 303.717 414.325 303.727C414.34 303.736 414.353 303.748 414.363 303.763C414.373 303.778 414.38 303.794 414.384 303.811C414.387 303.829 414.387 303.847 414.384 303.864C414.384 303.894 414.373 303.923 414.353 303.945C414.333 303.967 414.306 303.981 414.276 303.984Z" fill="black"/>
<path opacity="0.2" d="M413.388 306.612L409.788 306.432C409.788 306.432 409.68 306.36 409.68 306.288C409.68 306.253 409.694 306.219 409.719 306.195C409.743 306.17 409.777 306.156 409.812 306.156L413.412 306.336C413.442 306.345 413.468 306.363 413.486 306.388C413.505 306.413 413.515 306.443 413.515 306.474C413.515 306.505 413.505 306.535 413.486 306.56C413.468 306.585 413.442 306.603 413.412 306.612H413.388Z" fill="black"/>
<path d="M68.46 258.54C68.46 258.54 60.792 285.684 65.7 290.412C70.608 295.14 87.756 291.996 86.88 291.612C86.004 291.228 91.26 258.6 91.608 259.788C91.956 260.976 68.46 258.54 68.46 258.54Z" fill="#CD877B"/>
<path d="M195.324 221.556H117.36C115.358 221.556 113.736 223.179 113.736 225.18V300.708C113.736 302.71 115.358 304.332 117.36 304.332H195.324C197.325 304.332 198.948 302.71 198.948 300.708V225.18C198.948 223.179 197.325 221.556 195.324 221.556Z" fill="#268CBE"/>
<path opacity="0.9" d="M195.324 221.556H117.36C115.358 221.556 113.736 223.179 113.736 225.18V300.708C113.736 302.71 115.358 304.332 117.36 304.332H195.324C197.325 304.332 198.948 302.71 198.948 300.708V225.18C198.948 223.179 197.325 221.556 195.324 221.556Z" fill="white"/>
<path d="M182.028 230.376H131.7V233.58H182.028V230.376Z" fill="#268CBE"/>
<path d="M188.292 279.384H123.12V282.588H188.292V279.384Z" fill="#263238"/>
<path d="M155.328 287.892H123.12V291.096H155.328V287.892Z" fill="#263238"/>
<path d="M127.512 231.972C127.512 232.406 127.383 232.831 127.142 233.192C126.901 233.553 126.558 233.835 126.156 234.001C125.755 234.167 125.314 234.211 124.888 234.126C124.462 234.041 124.07 233.832 123.763 233.525C123.456 233.218 123.247 232.827 123.162 232.401C123.077 231.975 123.121 231.533 123.287 231.132C123.453 230.73 123.735 230.388 124.096 230.146C124.457 229.905 124.882 229.776 125.316 229.776C125.604 229.776 125.89 229.833 126.156 229.943C126.423 230.054 126.665 230.215 126.869 230.419C127.073 230.623 127.234 230.865 127.345 231.132C127.455 231.398 127.512 231.684 127.512 231.972Z" fill="#268CBE"/>
<path d="M188.292 242.592H160.368V270.516H188.292V242.592Z" fill="#268CBE"/>
<path opacity="0.4" d="M188.292 242.592H160.368V270.516H188.292V242.592Z" fill="white"/>
<path d="M186.684 244.188H161.964V268.908H186.684V244.188Z" fill="#268CBE"/>
<path opacity="0.7" d="M186.684 244.188H161.964V268.908H186.684V244.188Z" fill="white"/>
<path d="M161.964 268.92L170.364 257.748L175.92 261.552L182.628 254.136L186.696 257.928V268.92H161.964Z" fill="#268CBE"/>
<path d="M177.396 250.14C177.398 250.749 177.22 251.344 176.883 251.851C176.547 252.358 176.067 252.754 175.505 252.988C174.943 253.222 174.325 253.284 173.728 253.166C173.131 253.047 172.582 252.755 172.152 252.324C171.721 251.894 171.429 251.345 171.31 250.748C171.192 250.151 171.254 249.533 171.488 248.971C171.722 248.409 172.118 247.929 172.625 247.593C173.132 247.256 173.727 247.078 174.336 247.08C175.148 247.08 175.926 247.403 176.5 247.976C177.074 248.55 177.396 249.329 177.396 250.14Z" fill="#268CBE"/>
<path d="M154.944 242.592H127.02V270.516H154.944V242.592Z" fill="#268CBE"/>
<path opacity="0.4" d="M154.944 242.592H127.02V270.516H154.944V242.592Z" fill="white"/>
<path d="M153.336 244.188H128.616V268.908H153.336V244.188Z" fill="#268CBE"/>
<path opacity="0.7" d="M153.336 244.188H128.616V268.908H153.336V244.188Z" fill="white"/>
<path d="M128.616 268.92L137.016 257.748L142.572 261.552L149.28 254.136L153.336 257.928V268.92H128.616Z" fill="#268CBE"/>
<path d="M144 250.14C144.002 250.748 143.824 251.343 143.488 251.85C143.152 252.357 142.673 252.752 142.112 252.987C141.551 253.221 140.933 253.284 140.336 253.167C139.739 253.049 139.191 252.758 138.76 252.329C138.329 251.899 138.035 251.352 137.916 250.756C137.796 250.16 137.857 249.541 138.089 248.979C138.321 248.417 138.715 247.937 139.22 247.599C139.725 247.261 140.32 247.08 140.928 247.08C141.741 247.08 142.52 247.402 143.096 247.976C143.672 248.549 143.997 249.327 144 250.14Z" fill="#268CBE"/>
<path d="M77.508 503.724V527.28L88.44 528.132L92.28 506.004C87.276 502.392 82.344 501.528 77.508 503.724Z" fill="#CD877B"/>
<path d="M77.868 524.82C76.8 527.928 76.668 540.648 76.668 540.648H99.852C101.232 536.052 99.096 532.908 96.396 532.5C94.9885 532 93.7609 531.093 92.868 529.896C92.868 529.752 91.44 522.696 90.564 522.348C90.564 522.348 89.964 521.616 89.448 522.348C88.9913 523.341 88.6685 524.39 88.488 525.468C84.924 520.62 81.384 521.28 77.868 524.82Z" fill="#263238"/>
<path d="M77.592 528.516C78.86 528.001 80.2419 527.83 81.5972 528.022C82.9524 528.214 84.2328 528.761 85.308 529.608C85.704 529.908 86.088 529.2 85.692 528.9C84.5345 527.99 83.158 527.4 81.7005 527.189C80.2431 526.978 78.7559 527.155 77.388 527.7C76.932 527.88 77.136 528.672 77.592 528.492V528.516Z" fill="white"/>
<path d="M99.84 538.8H77.04C76.9318 538.8 76.828 538.757 76.7515 538.681C76.675 538.604 76.632 538.5 76.632 538.392C76.632 538.284 76.675 538.18 76.7515 538.104C76.828 538.027 76.9318 537.984 77.04 537.984H99.84C99.892 537.986 99.9432 537.997 99.9907 538.019C100.038 538.04 100.081 538.071 100.117 538.109C100.152 538.146 100.18 538.191 100.199 538.24C100.217 538.288 100.226 538.34 100.224 538.392C100.226 538.444 100.217 538.496 100.199 538.545C100.18 538.593 100.152 538.638 100.117 538.676C100.081 538.714 100.038 538.744 99.9907 538.765C99.9432 538.787 99.892 538.799 99.84 538.8Z" fill="white"/>
<path d="M73.452 515.328L96.768 516.528C102 499.572 107.16 438.804 107.7 420.528C108.336 398.724 116.1 344.016 109.236 332.628C102.372 321.24 71.124 330.312 71.124 330.312C71.124 330.312 75.012 396.936 73.452 418.176C72.108 436.68 70.02 490.8 73.452 515.328Z" fill="#263238"/>
<path d="M99.276 510.432L97.764 518.22L72.504 517.404L71.58 509.916L99.276 510.432Z" fill="#268CBE"/>
<path d="M124.704 500.652V527.232L135.228 528.108L140.4 503.22C136.152 499.812 131.244 498.156 124.704 500.652Z" fill="#CD877B"/>
<path d="M124.68 524.88C123.6 527.988 123.48 540.708 123.48 540.708H150.12C151.5 536.112 148.62 533.388 145.92 532.968C144.72 532.788 140.676 531.084 139.68 529.956C139.68 529.812 138.264 522.756 137.388 522.408C137.388 522.408 136.776 521.664 136.272 522.408C135.816 523.406 135.494 524.459 135.312 525.54C131.736 520.68 128.184 521.328 124.68 524.88Z" fill="#263238"/>
<path d="M124.392 528.564C125.66 528.047 127.042 527.876 128.397 528.068C129.753 528.26 131.033 528.808 132.108 529.656C132.516 529.968 132.888 529.248 132.492 528.948C131.336 528.04 129.961 527.451 128.506 527.24C127.051 527.03 125.566 527.205 124.2 527.748C123.744 527.94 123.936 528.732 124.392 528.54V528.564Z" fill="white"/>
<path d="M150.168 538.872H123.768C123.716 538.87 123.665 538.859 123.617 538.837C123.57 538.816 123.527 538.785 123.491 538.748C123.456 538.71 123.428 538.665 123.409 538.616C123.391 538.568 123.382 538.516 123.384 538.464C123.381 538.358 123.419 538.254 123.491 538.176C123.562 538.098 123.662 538.05 123.768 538.044H150.168C150.276 538.044 150.38 538.087 150.456 538.163C150.533 538.24 150.576 538.344 150.576 538.452C150.576 538.56 150.533 538.664 150.456 538.74C150.38 538.817 150.276 538.86 150.168 538.86V538.872Z" fill="white"/>
<path d="M120 515.328L143.1 516.528C145.92 497.76 157.224 429.432 156.3 416.352C155.172 400.368 141.792 331.152 136.812 325.824C131.832 320.496 95.4 334.32 95.4 334.32C95.4 334.32 110.364 393.828 122.172 419.52C124.632 424.956 118.116 492.516 120 515.328Z" fill="#263238"/>
<path d="M145.764 511.02L144.576 518.22L118.896 516.576L118.38 509.028L145.764 511.02Z" fill="#268CBE"/>
<g opacity="0.3">
<path d="M104.244 374.196C103.8 373.224 103.356 372.252 102.948 371.256C100.775 365.94 99.045 360.453 97.776 354.852C93.9542 354.444 90.1904 353.607 86.556 352.356C86.088 352.2 86.292 351.408 86.76 351.564C92.5039 353.54 98.5562 354.466 104.628 354.3C105.12 354.3 105.108 355.104 104.628 355.116C102.626 355.171 100.622 355.106 98.628 354.924C99.9063 360.488 101.636 365.938 103.8 371.22C106.054 376.417 108.594 381.484 111.408 386.4C111.672 386.844 111.012 387.264 110.76 386.808C108.72 383.208 106.74 379.512 104.952 375.732C104.784 380.232 104.28 394.176 103.752 412.632C102.78 444.492 95.352 496.284 93.228 510.264H92.4C94.452 496.512 102 444.516 102.936 412.608C103.62 390.78 104.208 375.276 104.244 374.196Z" fill="white"/>
<path d="M76.62 417.696C83.3402 417.298 90.0825 417.495 96.768 418.284C97.248 418.284 97.248 419.16 96.768 419.1C90.082 418.317 83.3403 418.12 76.62 418.512C76.14 418.536 76.14 417.72 76.62 417.696Z" fill="white"/>
<path d="M152.16 417.768C151.632 407.76 140.16 365.304 140.016 364.884C139.988 364.782 139.997 364.673 140.044 364.578C140.09 364.483 140.17 364.408 140.268 364.368C140.318 364.354 140.37 364.35 140.421 364.357C140.472 364.364 140.522 364.382 140.566 364.409C140.61 364.436 140.647 364.472 140.677 364.515C140.706 364.557 140.726 364.605 140.736 364.656C141.216 366.396 152.388 407.628 152.916 417.72C153.36 426.396 141.372 506.676 140.856 510.12C140.85 510.215 140.808 510.303 140.739 510.368C140.67 510.432 140.579 510.468 140.484 510.468C140.381 510.442 140.291 510.379 140.234 510.29C140.176 510.2 140.154 510.093 140.172 509.988C140.244 509.124 152.604 426.36 152.16 417.768Z" fill="white"/>
<path d="M145.62 360.48C136.956 356.94 134.148 346.656 132.096 337.848C132.082 337.801 132.077 337.751 132.082 337.702C132.087 337.653 132.102 337.605 132.125 337.562C132.148 337.518 132.18 337.48 132.218 337.449C132.257 337.418 132.301 337.394 132.348 337.38C132.395 337.366 132.445 337.361 132.494 337.366C132.543 337.371 132.591 337.386 132.634 337.409C132.678 337.433 132.716 337.464 132.747 337.503C132.778 337.541 132.802 337.585 132.816 337.632C134.808 346.104 137.448 356.268 145.824 359.7C146.268 359.88 146.076 360.672 145.62 360.48Z" fill="white"/>
<path d="M126.228 418.476L143.112 417.276C143.604 417.276 143.604 418.068 143.112 418.104L126.228 419.304C125.736 419.34 125.736 418.512 126.228 418.476Z" fill="white"/>
</g>
<path d="M122.952 186C122.952 186.984 123.384 187.716 124.008 187.824C124.632 187.932 125.208 187.104 125.208 186.108C125.208 185.112 124.788 184.392 124.176 184.284C123.564 184.176 123.072 185.016 122.952 186Z" fill="#263238"/>
<path d="M123.348 185.832C123.696 188.985 124.479 192.074 125.676 195.012C124.911 195.293 124.094 195.404 123.282 195.338C122.469 195.272 121.681 195.03 120.972 194.628L123.348 185.832Z" fill="#A24E3F"/>
<path d="M121.2 182.82C121.074 182.834 120.947 182.805 120.84 182.736C120.787 182.684 120.744 182.621 120.715 182.552C120.686 182.483 120.672 182.409 120.672 182.334C120.672 182.259 120.686 182.185 120.715 182.116C120.744 182.047 120.787 181.985 120.84 181.932C121.412 181.221 122.147 180.659 122.983 180.294C123.818 179.928 124.73 179.77 125.64 179.832C125.784 179.847 125.917 179.919 126.009 180.031C126.101 180.143 126.145 180.287 126.132 180.432C126.111 180.582 126.033 180.718 125.915 180.811C125.796 180.905 125.646 180.95 125.496 180.936C124.784 180.903 124.074 181.042 123.427 181.341C122.78 181.639 122.213 182.089 121.776 182.652C121.706 182.733 121.615 182.791 121.513 182.821C121.411 182.851 121.302 182.851 121.2 182.82Z" fill="#263238"/>
<path d="M123.372 198.96C123.241 199.481 123.081 199.994 122.892 200.496C121.84 203.395 119.932 205.906 117.42 207.696C116.785 208.148 116.115 208.549 115.416 208.896C112.74 210.302 109.682 210.809 106.695 210.342C103.709 209.876 100.951 208.46 98.832 206.304C93.288 200.796 93.432 194.436 92.832 183.672C92.6655 181.356 93.0478 179.033 93.948 176.892C95.5185 173.258 98.4546 170.387 102.123 168.899C105.791 167.411 109.897 167.424 113.556 168.936C124.224 173.244 125.7 189.252 123.372 198.96Z" fill="#CD877B"/>
<path opacity="0.2" d="M117.372 207.684C115.37 209.124 113.038 210.038 110.591 210.34C108.144 210.642 105.66 210.323 103.368 209.412C103.865 208.134 104.522 206.924 105.324 205.812C109.436 205.282 113.614 205.931 117.372 207.684Z" fill="black"/>
<path d="M95.328 221.64C100.728 226.44 113.952 224.688 113.952 224.688C113.952 224.688 122.196 222.468 120.456 219.888C115.656 219.096 113.256 216.864 112.272 214.008C111.748 212.238 111.585 210.382 111.792 208.548C111.862 207.524 111.999 206.506 112.2 205.5L95.856 193.608C97.992 201.516 100.608 216 95.328 221.64Z" fill="#CD877B"/>
<path d="M117.372 189.168L119.772 190.032L118.572 185.232C118.572 185.232 122.028 180.048 118.572 175.548C118.572 175.548 128.172 172.704 122.724 167.772C120.72 165.936 118.224 167.772 111.636 164.964C108.036 163.428 96.9 163.308 96.336 167.772C96.336 167.772 88.284 167.772 87.42 181.248C87.1697 185.208 87.8044 189.174 89.2782 192.859C90.7519 196.543 93.0276 199.853 95.94 202.548C95.94 202.548 105.672 204.804 110.436 200.976C115.2 197.148 117.372 189.168 117.372 189.168Z" fill="#263238"/>
<path d="M111.156 189.924C111.36 190.942 111.789 191.901 112.412 192.732C113.035 193.562 113.836 194.243 114.756 194.724C116.988 195.648 118.464 192.564 118.128 189.336C117.828 186.456 116.316 182.412 113.928 182.952C111.54 183.492 110.4 187.02 111.156 189.924Z" fill="#CD877B"/>
<path d="M78.708 219.06C78.708 219.06 74.916 220.26 73.02 220.908C69.084 222.348 66.492 226.728 65.064 231.036C61.584 241.548 55.956 266.448 55.956 266.448L76.356 270.732L87.252 247.272L78.708 219.06Z" fill="#268CBE"/>
<path opacity="0.5" d="M78.708 219.06C78.708 219.06 73.248 220.068 70.308 222.444C67.7518 224.739 65.9104 227.722 65.004 231.036C61.524 241.548 55.896 266.448 55.896 266.448L76.296 270.732L87.192 247.272L78.708 219.06Z" fill="white"/>
<path d="M128.16 220.26C122.16 219.612 103.608 215.46 78.708 219.06L72.888 311.124C72.3722 319.899 71.3828 328.64 69.924 337.308C95.232 348.168 125.124 345.06 142.104 335.928C141.9 336.312 141.348 326.268 140.484 311.544C138.948 285.612 136.452 245.172 133.284 221.772C133.128 221.184 128.76 220.332 128.16 220.26Z" fill="#268CBE"/>
<g opacity="0.5">
<path d="M128.16 220.26C122.16 219.612 103.608 215.46 78.708 219.06L72.888 311.124C72.3722 319.899 71.3828 328.64 69.924 337.308C95.232 348.168 125.124 345.06 142.104 335.928C141.9 336.312 141.348 326.268 140.484 311.544C138.948 285.612 136.452 245.172 133.284 221.772C133.128 221.184 128.76 220.332 128.16 220.26Z" fill="white"/>
</g>
<path d="M95.052 218.1C95.5399 216.312 96.5974 214.733 98.064 213.6L111.924 214.668L118.428 218.964L95.052 218.1Z" fill="#268CBE"/>
<path opacity="0.5" d="M95.052 218.1C95.5344 216.306 96.5875 214.718 98.052 213.576L111.924 214.644L118.428 218.94L95.052 218.1Z" fill="white"/>
<path opacity="0.2" d="M127.512 248.916C129.732 259.296 132.924 279.624 138.948 286.704L137.52 266.136L127.512 248.916Z" fill="black"/>
<path opacity="0.2" d="M75.072 270.444L75.612 243.864L70.032 269.184L75.072 270.444Z" fill="black"/>
<path d="M138.144 257.124C137.364 257.424 152.388 291.204 158.544 291.516C164.7 291.828 193.344 278.748 193.344 278.748L186.9 271.068L165.204 272.268L154.14 248.712L138.144 257.124Z" fill="#CD877B"/>
<path d="M130.596 221.424C122.808 226.56 118.944 238.224 139.824 274.224L162.372 260.4C157.812 252 152.976 245.868 147.612 233.676C136.8 218.1 130.596 221.424 130.596 221.424Z" fill="#268CBE"/>
<path opacity="0.5" d="M130.596 221.424C122.808 226.56 118.944 238.224 139.824 274.224L162.372 260.4C157.812 252 152.976 245.868 147.612 233.676C136.8 218.1 130.596 221.424 130.596 221.424Z" fill="white"/>
<path d="M203.424 270.84C203.424 268.86 202.824 266.724 201.756 266.652C200.688 266.58 195.024 266.652 195.024 266.652C195.027 266.287 194.935 265.927 194.757 265.608C194.579 265.29 194.322 265.022 194.01 264.832C193.698 264.643 193.342 264.537 192.977 264.526C192.613 264.514 192.251 264.598 191.928 264.768C190.248 265.656 188.424 266.868 187.956 268.104C187.617 269.182 187.162 270.22 186.6 271.2L190.476 280.116C190.476 280.116 197.676 284.844 199.332 283.176C199.808 282.737 200.19 282.205 200.452 281.612C200.714 281.02 200.851 280.38 200.856 279.732C200.856 279.732 202.524 277.416 202.368 275.904C202.212 274.392 203.424 272.808 203.424 270.84Z" fill="#CD877B"/>
</svg>
